HIERARCHY
ROOT root
{
	OFFSET	0	13.1	24.9
	CHANNELS 6  Xposition Yposition Zposition Xrotation Yrotation Zrotation
	JOINT spine_1
	{
		OFFSET	0	9.99999	0
		CHANNELS 3  Xrotation Yrotation Zrotation
		JOINT spine_2
		{
			OFFSET	0	112	-10
			CHANNELS 3  Xrotation Yrotation Zrotation
			JOINT spine_3
			{
				OFFSET	0	206.5	19.3
				CHANNELS 3  Xrotation Yrotation Zrotation
				JOINT spine_4
				{
					OFFSET	0	110.4	14.6
					CHANNELS 3  Xrotation Yrotation Zrotation
					JOINT neck_1
					{
						OFFSET	0	71.8	-50.3
						CHANNELS 3  Xrotation Yrotation Zrotation
						JOINT neck_2
						{
							OFFSET	0	86.2	-25.8
							CHANNELS 3  Xrotation Yrotation Zrotation
							JOINT head_ee
							{
								OFFSET	0	179.8	-8.7
								CHANNELS 3  Xrotation Yrotation Zrotation
								End Site
								{
									OFFSET	1	0	0
								}
							}
						}
					}
					JOINT left_clavicle
					{
						OFFSET	-43.2	22.4	-70.8
						CHANNELS 3  Xrotation Yrotation Zrotation
						JOINT left_shoulder
						{
							OFFSET	-93.9	-5.79999	48.7
							CHANNELS 3  Xrotation Yrotation Zrotation
							JOINT left_elbow
							{
								OFFSET	-291.4	-30.8	15.2
								CHANNELS 3  Xrotation Yrotation Zrotation
								JOINT left_lowarm_twist
								{
									OFFSET	-110.7	-3.89999	13.6
									CHANNELS 3  Xrotation Yrotation Zrotation
									JOINT left_hand
									{
										OFFSET	-110.7	-3.89999	13.6
										CHANNELS 3  Xrotation Yrotation Zrotation
										JOINT left_ee
										{
											OFFSET	-80.8	-5.10001	12.1
											CHANNELS 3  Xrotation Yrotation Zrotation
											End Site
											{
												OFFSET	1	0	0
											}
										}
									}
								}
							}
						}
					}
					JOINT right_clavicle
					{
						OFFSET	43.2	22.4	-70.8
						CHANNELS 3  Xrotation Yrotation Zrotation
						JOINT right_shoulder
						{
							OFFSET	93.9	-5.79999	48.7
							CHANNELS 3  Xrotation Yrotation Zrotation
							JOINT right_elbow
							{
								OFFSET	291.4	-30.8	15.2
								CHANNELS 3  Xrotation Yrotation Zrotation
								JOINT right_lowarm_twist
								{
									OFFSET	110.7	-3.89999	13.6
									CHANNELS 3  Xrotation Yrotation Zrotation
									JOINT right_hand
									{
										OFFSET	110.7	-3.89999	13.6
										CHANNELS 3  Xrotation Yrotation Zrotation
										JOINT right_ee
										{
											OFFSET	80.8	-5.10001	12.1
											CHANNELS 3  Xrotation Yrotation Zrotation
											End Site
											{
												OFFSET	1	0	0
											}
										}
									}
								}
							}
						}
					}
				}
			}
		}
	}
	JOINT left_hip
	{
		OFFSET	-82.8	-127.5	0.300001
		CHANNELS 3  Xrotation Yrotation Zrotation
		JOINT left_knee
		{
			OFFSET	-28.2	-396.7	2.2
			CHANNELS 3  Xrotation Yrotation Zrotation
			JOINT left_ankle
			{
				OFFSET	-11.7	-411.3	35.4
				CHANNELS 3  Xrotation Yrotation Zrotation
				JOINT left_toes
				{
					OFFSET	0	-60	-88.6
					CHANNELS 3  Xrotation Yrotation Zrotation
					JOINT left_foot_ee
					{
						OFFSET	-22.5	-16.5	-42.2
						CHANNELS 3  Xrotation Yrotation Zrotation
						End Site
						{
							OFFSET	1	0	0
						}
					}
				}
			}
		}
	}
	JOINT right_hip
	{
		OFFSET	82.8	-127.5	0.300001
		CHANNELS 3  Xrotation Yrotation Zrotation
		JOINT right_knee
		{
			OFFSET	28.2	-396.7	2.2
			CHANNELS 3  Xrotation Yrotation Zrotation
			JOINT right_ankle
			{
				OFFSET	11.7	-411.3	35.4
				CHANNELS 3  Xrotation Yrotation Zrotation
				JOINT right_toes
				{
					OFFSET	0	-60	-88.6
					CHANNELS 3  Xrotation Yrotation Zrotation
					JOINT right_foot_ee
					{
						OFFSET	22.5	-16.5	-42.2
						CHANNELS 3  Xrotation Yrotation Zrotation
						End Site
						{
							OFFSET	1	0	0
						}
					}
				}
			}
		}
	}
}
MOTION
Frames: 5
Frame Time: 0.02
4083.19 751.087 -360.552 -0.455599 54.5279 -3.95907 -2.16951 0.534937 3.22206 -2.16379 0.328936 3.24953 -2.13864 -0.482602 3.23031 -2.1532 0.0333389 3.26595 0.628196 6.31668 -15.4945 2.10677 23.9355 -16.6094 -0.0 0.0 -0.0 5.45397 7.22705 10.6464 -2.00527 11.524 57.6804 0.900575 -24.0422 0.191774 14.9694 0.282497 -1.88592 0.596123 -8.6478 0.352986 -0.0 0.0 -0.0 13.1761 25.3351 -26.1615 0.473572 -9.01473 -60.9918 0.451602 12.6102 -0.0498985 -2.79708 0.106912 -0.341121 1.03503 23.5393 3.19751 0.0 0.0 0.0 5.88699 26.622 5.86673 -0.9978 0.0397971 0.147952 22.8208 4.77784 -3.07621 -7.25072 0.0 0.0 -0.0 0.0 -0.0 1.34858 -14.4234 -2.28657 6.10501 0.299096 0.888373 15.134 1.06898 2.13408 -27.1368 0.0 0.0 0.0 0.0 0.0 
4088.62 756.998 -360.404 -1.64824 55.9969 -2.86578 -2.05086 0.437191 3.2905 -2.04486 0.227039 3.31162 -2.02542 -0.590389 3.26652 -2.04031 -0.0673896 3.3187 0.882504 6.06935 -15.503 2.35934 23.5348 -16.7064 -0.0 0.0 -0.0 5.34028 6.92946 10.4382 -2.16897 11.3458 58.9674 0.889736 -23.7852 0.18738 15.1644 0.282905 -1.91082 0.6388 -8.49682 0.705496 -0.0 0.0 -0.0 12.9608 25.0428 -25.6956 0.395468 -8.85282 -62.111 0.4396 12.2854 -0.0473113 -2.72319 0.103874 -0.332178 1.10057 23.7052 2.84358 0.0 0.0 0.0 5.84509 26.5853 5.25427 -1.34885 0.0531843 0.200162 23.4125 5.2853 -3.14572 -6.99931 0.0 0.0 -0.0 0.0 -0.0 1.96421 -14.6059 -2.96293 5.81136 0.282548 0.846391 14.486 1.30257 2.04956 -27.1612 0.0 0.0 0.0 0.0 0.0 
4087.8 760.737 -364.925 -0.932857 56.4023 -2.90708 -2.00341 0.354433 3.24123 -1.99757 0.147578 3.25719 -1.98332 -0.651858 3.19477 -1.99753 -0.139403 3.25755 1.1179 5.83632 -15.4846 2.58766 23.1358 -16.7646 -0.0 0.0 -0.0 5.27567 6.47036 10.3169 -2.27164 11.2123 59.8944 0.876635 -23.4731 0.182129 15.3409 0.2832 -1.93336 0.667805 -8.37312 0.954061 -0.0 0.0 -0.0 12.8763 24.7797 -25.5288 0.0257405 -8.78965 -63.3553 0.42799 11.9704 -0.044872 -2.70158 0.102988 -0.329562 1.15012 23.8214 2.57235 0.0 0.0 0.0 5.97234 26.5847 4.7388 -1.54811 0.0606406 0.229834 23.6074 5.67234 -3.16829 -6.85716 0.0 0.0 -0.0 0.0 -0.0 2.29078 -14.7396 -3.28633 5.60424 0.271006 0.816729 13.9109 1.4526 1.9737 -27.1801 0.0 0.0 0.0 0.0 0.0 
4088.38 763.137 -357.199 -0.94833 56.5928 -2.61767 -1.96302 0.309869 3.27875 -1.95704 0.100721 3.29181 -1.94544 -0.703704 3.21737 -1.95983 -0.187037 3.28804 1.41104 4.94115 -15.3531 2.7897 21.4967 -16.7346 -0.0 0.0 -0.0 4.38056 5.94127 8.6671 -2.98906 11.2952 60.9725 0.820732 -22.1249 0.160465 15.9806 0.283688 -2.01506 0.874932 -8.23265 2.41298 -0.0 0.0 -0.0 11.7557 24.6241 -22.9721 -1.73554 -9.14381 -65.8136 0.416247 11.6511 -0.0424685 -2.49238 0.0944576 -0.304216 1.24829 23.9284 1.98074 0.0 0.0 0.0 6.42633 25.4364 4.37684 -1.68832 0.0658251 0.250728 21.5575 5.8968 -2.92243 -6.73013 0.0 0.0 -0.0 0.0 -0.0 2.58255 -16.0237 -3.45419 5.43468 0.261637 0.792417 12.1318 0.851555 1.73073 -26.8437 0.0 0.0 0.0 0.0 0.0 
4084.96 764.303 -357.546 -1.30545 57.4247 -1.5657 -1.91137 0.373074 3.38561 -1.90501 0.15701 3.40246 -1.88943 -0.672743 3.33906 -1.90496 -0.137278 3.40331 1.64582 4.24973 -15.2277 2.95262 20.2146 -16.6835 -0.0 0.0 -0.0 3.2279 5.18468 6.52257 -3.46651 11.1587 61.5577 0.781945 -21.1739 0.146155 16.4181 0.283497 -2.07094 1.02545 -8.12705 3.47552 -0.0 0.0 -0.0 10.6257 25.0673 -20.3659 -2.76269 -9.36036 -67.1636 0.406741 11.3921 -0.0405699 -2.30503 0.0868977 -0.281492 1.32042 23.9596 1.52522 0.0 0.0 0.0 6.662 24.5828 3.76912 -1.80645 0.0701535 0.26834 19.9753 6.11749 -2.72805 -6.64041 0.0 0.0 -0.0 0.0 -0.0 2.66643 -16.9271 -3.68349 5.25156 0.251601 0.76613 10.7471 0.424417 1.53957 -26.602 0.0 0.0 0.0 0.0 0.0 
